{"accessors" : [{"bufferView" : 0, "byteOffset" : 0, "componentType" : 5123, "count" : 29904, "type" : "SCALAR", "max" : [24676], "min" : [0]}, {"bufferView" : 1, "byteOffset" : 0, "componentType" : 5126, "count" : 24677, "type" : "VEC3", "max" : [15.853227615356445, 68.01579284667969, 6.0651068687438965], "min" : [-15.850027084350586, 0.0020349998958408833, -5.399774074554443], "name" : "POSITION"}], "asset" : {"generator" : "Aspose.3D 24.1.0", "version" : "2.0"}, "buffers" : [{"uri" : "data:application/octet-stream;base64,", "byteLength" : 418664}], "bufferViews" : [{"buffer" : 0, "byteOffset" : 0, "byteLength" : 59808, "target" : 34963}, {"buffer" : 0, "byteOffset" : 59812, "byteLength" : 358848, "byteStride" : 12, "target" : 34962}], "meshes" : [{"primitives" : [{"attributes" : {"POSITION" : 1}, "indices" : 0, "mode" : 4}], "name" : ""}], "nodes" : [{"mesh" : 0, "name" : "Realistic_White_Female_Low_Poly"}], "scene" : 0, "scenes" : [{"nodes" : [0]}]}