{"accessors" : [{"bufferView" : 0, "byteOffset" : 0, "componentType" : 5123, "count" : 29652, "type" : "SCALAR", "max" : [24501], "min" : [0]}, {"bufferView" : 1, "byteOffset" : 0, "componentType" : 5126, "count" : 24502, "type" : "VEC3", "max" : [16.815303802490234, 72.01109313964844, 6.678390026092529], "min" : [-16.813566207885742, -0.01308200042694807, -6.543439865112305], "name" : "POSITION"}], "asset" : {"generator" : "Aspose.3D 24.1.0", "version" : "2.0"}, "buffers" : [{"uri" : "data:application/octet-stream;base64,", "byteLength" : 415136}], "bufferViews" : [{"buffer" : 0, "byteOffset" : 0, "byteLength" : 59304, "target" : 34963}, {"buffer" : 0, "byteOffset" : 59308, "byteLength" : 355824, "byteStride" : 12, "target" : 34962}], "meshes" : [{"primitives" : [{"attributes" : {"POSITION" : 1}, "indices" : 0, "mode" : 4}], "name" : ""}], "nodes" : [{"mesh" : 0, "name" : "Realistic_White_Male_Low_Poly"}], "scene" : 0, "scenes" : [{"nodes" : [0]}]}